<mxfile host="app.diagrams.net" agent="Mozilla/5.0 (Windows NT 10.0; Win64; x64) AppleWebKit/537.36 (KHTML, like Gecko) Chrome/128.0.0.0 Safari/537.36 Edg/128.0.0.0" version="25.0.3">
  <diagram name="Page-1" id="74e2e168-ea6b-b213-b513-2b3c1d86103e">
    <mxGraphModel dx="2140" dy="590" grid="1" gridSize="10" guides="1" tooltips="1" connect="1" arrows="1" fold="1" page="1" pageScale="1" pageWidth="1100" pageHeight="850" background="none" math="0" shadow="0">
      <root>
        <mxCell id="0" />
        <mxCell id="1" parent="0" />
        <mxCell id="cj8k2KHTS7MA4aPITtsR-3" style="edgeStyle=orthogonalEdgeStyle;rounded=0;orthogonalLoop=1;jettySize=auto;html=1;exitX=0.5;exitY=1;exitDx=0;exitDy=0;" edge="1" parent="1" source="cj8k2KHTS7MA4aPITtsR-2">
          <mxGeometry relative="1" as="geometry">
            <mxPoint x="135" y="100" as="targetPoint" />
          </mxGeometry>
        </mxCell>
        <mxCell id="cj8k2KHTS7MA4aPITtsR-2" value="hierfavg" style="whiteSpace=wrap;html=1;" vertex="1" parent="1">
          <mxGeometry x="95" y="40" width="80" height="20" as="geometry" />
        </mxCell>
        <mxCell id="cj8k2KHTS7MA4aPITtsR-58" value="" style="edgeStyle=orthogonalEdgeStyle;rounded=0;orthogonalLoop=1;jettySize=auto;html=1;" edge="1" parent="1" source="cj8k2KHTS7MA4aPITtsR-40" target="cj8k2KHTS7MA4aPITtsR-57">
          <mxGeometry relative="1" as="geometry" />
        </mxCell>
        <mxCell id="cj8k2KHTS7MA4aPITtsR-40" value="args=args_parser()" style="whiteSpace=wrap;html=1;" vertex="1" parent="1">
          <mxGeometry x="80" y="100" width="110" height="20" as="geometry" />
        </mxCell>
        <mxCell id="cj8k2KHTS7MA4aPITtsR-49" value="" style="edgeStyle=orthogonalEdgeStyle;rounded=0;orthogonalLoop=1;jettySize=auto;html=1;" edge="1" parent="1" source="cj8k2KHTS7MA4aPITtsR-47" target="cj8k2KHTS7MA4aPITtsR-40">
          <mxGeometry relative="1" as="geometry" />
        </mxCell>
        <mxCell id="cj8k2KHTS7MA4aPITtsR-47" value="def main" style="text;whiteSpace=wrap;html=1;fillColor=#fff2cc;strokeColor=#d6b656;" vertex="1" parent="1">
          <mxGeometry x="-40" y="97.5" width="50" height="25" as="geometry" />
        </mxCell>
        <mxCell id="cj8k2KHTS7MA4aPITtsR-55" value="" style="edgeStyle=orthogonalEdgeStyle;rounded=0;orthogonalLoop=1;jettySize=auto;html=1;" edge="1" parent="1" source="cj8k2KHTS7MA4aPITtsR-54" target="cj8k2KHTS7MA4aPITtsR-40">
          <mxGeometry relative="1" as="geometry" />
        </mxCell>
        <mxCell id="cj8k2KHTS7MA4aPITtsR-54" value="&lt;span style=&quot;text-align: left;&quot;&gt;utils/options.py&lt;/span&gt;" style="rounded=0;whiteSpace=wrap;html=1;fillColor=#d5e8d4;strokeColor=#82b366;" vertex="1" parent="1">
          <mxGeometry x="250" y="100" width="120" height="20" as="geometry" />
        </mxCell>
        <mxCell id="cj8k2KHTS7MA4aPITtsR-57" value="HierFAVG(args)" style="whiteSpace=wrap;html=1;" vertex="1" parent="1">
          <mxGeometry x="80" y="150" width="110" height="20" as="geometry" />
        </mxCell>
      </root>
    </mxGraphModel>
  </diagram>
</mxfile>
